# xmcd
#
# Track frame offsets:
#	150
#	15078
#	29181
#	42777
#	59127
#	88059
#	102402
#	115227
#	127896
#	141660
#	154098
#	168525
#	184617
#	197634
#	210750
#
# Disc length: 2992
#
# Revision: 1
# Processed by: cddbd v1.5.1PL0 Copyright (c) Steve Scherf et al.
# Submitted via: CDex 1.51
# Normalized: r0:TDELIM( - )
#
DISCID=cf0bae0f
DTITLE=Compilation Jazz - Les Grands Standards - CD 01
DYEAR=2004
DGENRE=Jazz
TTITLE0=Sidney Bechet - Petite fleur
TTITLE1=Django Reinhardt - Embraceable You
TTITLE2=Charlie Parker - Night In Tunisia
TTITLE3=Errol Garner - I'm In The Mood For Love
TTITLE4=Gerry Mulligan and Astor Piazzolla - 20 Years Ago
TTITLE5=Miles Davis - Venus De Milo
TTITLE6=Benny Goodman - Stompin At The Savoy
TTITLE7=Charlie Christian - Solo Flight
TTITLE8=Count Basie - Jumpin At The Wood Side
TTITLE9=Thelonious Monk - Mistorioso
TTITLE10=Lionel Hampton - Flying Home
TTITLE11=Lester Young - Almost Like Being In Love
TTITLE12=Bud Powell - Somebody Loves Me
TTITLE13=Duke Ellington and His Orchestra - Take The A Train
TTITLE14=Dizzy Gillepsie - Manteca
EXTD=YEAR: 2004
EXTT0=
EXTT1=
EXTT2=
EXTT3=
EXTT4=
EXTT5=
EXTT6=
EXTT7=
EXTT8=
EXTT9=
EXTT10=
EXTT11=
EXTT12=
EXTT13=
EXTT14=
PLAYORDER=
